<svg xmlns="http://www.w3.org/2000/svg" width="80" height="77" viewBox="0 0 80 77">
    <g fill="none" fill-rule="nonzero">
        <path fill="#EEE" d="M59.288 5.705c6.237 0 11.293 5.056 11.293 11.293l-.001 32.937-6.587.001c-5.623 0-10.2 4.484-10.348 10.072l-.003.28v15.057h-42.35C5.057 75.345 0 70.29 0 64.052V16.998C0 10.761 5.056 5.705 11.293 5.705h47.995z"/>
        <g stroke="#9B9B9B" stroke-linecap="round" stroke-linejoin="round" stroke-width="1.882">
            <path d="M76.146 55.946L59.651 72.441a9.914 9.914 0 0 1-7.011 2.904H14.618c-5.475 0-9.913-4.437-9.913-9.912v-54.52C4.705 5.438 9.143 1 14.618 1h54.52c5.475 0 9.913 4.438 9.913 9.913v38.022a9.914 9.914 0 0 1-2.905 7.011z"/>
            <path d="M53.642 74.404V59.777a9.84 9.84 0 0 1 9.84-9.84H78.11M15.057 22.645H61.17M15.057 37.702H61.17M15.057 52.759h26.35"/>
        </g>
    </g>
</svg>
